<svg width="24" height="28" viewBox="0 0 24 28" fill="none" xmlns="http://www.w3.org/2000/svg">
<path d="M6.98681 20.3236C7.16803 20.7609 7.47497 21.1347 7.86875 21.3974C8.26254 21.6602 8.72545 21.8002 9.19886 21.7997H18.3663C18.8544 21.798 19.3305 21.6484 19.7318 21.3706C20.1331 21.0927 20.4408 20.6998 20.6141 20.2435L23.9224 11.4216C23.9912 11.24 24.0147 11.0444 23.9911 10.8517C23.9675 10.6589 23.8974 10.4748 23.7869 10.3151C23.6764 10.1554 23.5288 10.025 23.3567 9.93496C23.1847 9.84495 22.9933 9.79807 22.7991 9.79836H5.19465L3.50747 5.73804C3.41631 5.51954 3.26256 5.33289 3.06556 5.20156C2.86856 5.07024 2.63712 5.00011 2.40036 5H0V7.40026H1.59952L6.98681 20.3236ZM21.0686 12.1997L18.3685 19.3994H9.19886L6.20111 12.1997H21.0686Z" fill="#8CA2AE"/>
<path d="M10.2004 27.7995C11.1943 27.7995 12.0001 26.9938 12.0001 25.9999C12.0001 25.0059 11.1943 24.2002 10.2004 24.2002C9.2064 24.2002 8.40063 25.0059 8.40063 25.9999C8.40063 26.9938 9.2064 27.7995 10.2004 27.7995Z" fill="#8CA2AE"/>
<path d="M17.3274 27.7995C18.3214 27.7995 19.1272 26.9938 19.1272 25.9999C19.1272 25.0059 18.3214 24.2002 17.3274 24.2002C16.3335 24.2002 15.5277 25.0059 15.5277 25.9999C15.5277 26.9938 16.3335 27.7995 17.3274 27.7995Z" fill="#8CA2AE"/>
</svg>
